<svg id="Layer_1" data-name="Layer 1" xmlns="http://www.w3.org/2000/svg" viewBox="0 0 581 711"><path d="M437.91,88,548,206.72V679H87V88H437.91M464.1,28H27V739H608V183.18L464.1,28Z" transform="translate(-27 -28)"/><path d="M122,357.93h60.84C220,357.93,250,371.4,250,413.09c0,40.38-30.8,58.17-67.18,58.17h-22v58.17H122Zm58.59,82.53c21.27,0,31.37-9.54,31.37-27.37S201,388.74,180.57,388.74H160.8v51.72Z" transform="translate(-27 -28)"/><path d="M260.36,357.93h47.38c49.76,0,82.47,26.05,82.47,85s-32.71,86.54-80.28,86.54H260.36Zm45.23,140.24c26.68,0,44.83-14.25,44.83-55.28s-18.15-53.7-44.83-53.7h-6.41v109Z" transform="translate(-27 -28)"/><path d="M408.91,357.93h114v32.55H447.72v39.74h64.22v32.55H447.72v66.66H408.91Z" transform="translate(-27 -28)"/><path d="M583,63" transform="translate(-27 -28)"/></svg>